<?xml version="1.0" encoding="UTF-8"?> <svg xmlns="http://www.w3.org/2000/svg" width="291" height="65.13" viewBox="0 0 291 65.13"><g id="Camada_2" data-name="Camada 2" transform="translate(-0.003 -0.001)"><g id="Layer_1" data-name="Layer 1" transform="translate(0.003 0.001)"><path id="Path_98" data-name="Path 98" d="M360.706,51.635v-3.45H357.45v21.37h3.571V53.632a10.32,10.32,0,0,1,7.474-3.191s3.942-.354,4.024,3.506v15.72h3.429V53.278s.078-5.24-6.426-5.438A12.58,12.58,0,0,0,360.706,51.635Z" transform="translate(-203.293 -27.208)" fill="#fff"></path><path id="Path_99" data-name="Path 99" d="M435.211,47.66H422.838s-8.194-.082-8.556,7.25a6.43,6.43,0,0,0,3.45,6.163s-3.735,1.294-3.653,3.6c0,0-.16,2.394,3.153,3.235,0,0-4.334.944-4.313,4.438,0,0-.737,5.438,11.351,5.1,0,0,10.9.134,10.851-5.908,0,0,.431-3.653-4.442-4.865a76.34,76.34,0,0,0-10.829-1.13s-2.312-.078-2.286-1.5c0,0-.185-1.208,2.182-2.023a13.684,13.684,0,0,0,3.938.474s9.057.367,9.225-7.435c0,0-.211-3.549-1.419-4.835h3.743ZM423.847,68.546s8.354-.2,7.806,3.269c0,0,.656,3.235-7.569,3.157,0,0-7.7.6-7.763-3.183C416.308,71.79,416.123,68.1,423.847,68.546Zm.091-8.393s-6.305.509-6.344-5.205c0,0-.552-4.809,5.99-4.886,0,0,5.913-.474,5.99,5.007C429.574,55.069,430.087,60.072,423.938,60.154Z" transform="translate(-234.835 -27.106)" fill="#fff"></path><path id="Path_100" data-name="Path 100" d="M482.87,41.2V29.79h-3.42V59.4h3.42V43.474a10.963,10.963,0,0,1,8.22-3.312s3.981-.233,4.058,3.627L495.122,59.4h3.45l.026-16.281s.03-5.43-6.422-5.438A12.222,12.222,0,0,0,482.87,41.2Z" transform="translate(-272.678 -16.943)" fill="#fff"></path><path id="Path_101" data-name="Path 101" d="M555.914,67.311V53.541a6.136,6.136,0,0,0-1.971-3.881c-1.755-1.85-6.84-1.949-6.84-1.949-3.834.1-5.3,1.026-5.3,1.026a9.729,9.729,0,0,0-4.153,3.545l3.075,1.393a6.978,6.978,0,0,1,6.305-3.312c4.7,0,5.253,2.838,5.253,2.838v2.13a44.439,44.439,0,0,0-10.506,2.652c-5.318,2.143-4.968,6.163-4.968,6.163.612,6.072,7.086,5.809,7.086,5.809a12.437,12.437,0,0,0,8.259-3.273l.3,2.911h3.994A10.2,10.2,0,0,1,555.914,67.311Zm-3.649-3.347a14.045,14.045,0,0,1-7.487,3.347s-4.632.2-4.434-3.23c0,0-.336-2.954,4.709-4.36a28.182,28.182,0,0,1,7.211-1.647Z" transform="translate(-305.294 -27.134)" fill="#fff"></path><path id="Path_102" data-name="Path 102" d="M315.167,67.334V53.564a6.113,6.113,0,0,0-1.971-3.881c-1.755-1.824-6.823-1.932-6.823-1.932-3.834.1-5.3,1.026-5.3,1.026a9.764,9.764,0,0,0-4.183,3.545l3.075,1.393a6.978,6.978,0,0,1,6.305-3.312c4.705,0,5.257,2.838,5.257,2.838v2.13a44.44,44.44,0,0,0-10.51,2.652c-5.309,2.126-4.968,6.146-4.968,6.146.612,6.072,7.09,5.809,7.09,5.809a12.433,12.433,0,0,0,8.255-3.273l.3,2.911h3.994A10.066,10.066,0,0,1,315.167,67.334Zm-3.644-3.347a14.068,14.068,0,0,1-7.491,3.347s-4.632.2-4.433-3.23c0,0-.336-2.954,4.71-4.36a28.18,28.18,0,0,1,7.215-1.647Z" transform="translate(-168.367 -27.157)" fill="#fff"></path><path id="Path_103" data-name="Path 103" d="M624.187,47.925a12.754,12.754,0,0,0-8.328,3.679c-.569-1.518-2.1-3.511-5.947-3.627,0,0-4.089-.733-8.815,3.627V48.3H597.84V69.691h3.571V53.768a10.122,10.122,0,0,1,7.461-3.321,3.59,3.59,0,0,1,3.881,3.636V69.713h3.45V53.652s3.351-3.338,7.133-3.153c0,0,3.916-.392,4.127,3.153V69.713h3.545V53.523S631,47.748,624.187,47.925Z" transform="translate(-340.009 -27.254)" fill="#fff"></path><path id="Path_104" data-name="Path 104" d="M239.27,29.79h4.019V56.65H259.13V59.4H239.27Z" transform="translate(-136.081 -16.943)" fill="#fff"></path><path id="Path_105" data-name="Path 105" d="M480.07,109.08h1.169v6.866h5.451v.949h-6.62Z" transform="translate(-273.03 -62.037)" fill="#93b5c5"></path><path id="Path_106" data-name="Path 106" d="M508.659,112.836c0,2.661-2.307,3.994-4.951,3.994a6.012,6.012,0,0,1-3.381-.863,3.605,3.605,0,0,1-1.669-3.144c0-2.881,2.506-4.183,4.968-4.183C506.5,108.653,508.659,110.253,508.659,112.836Zm-8.832-.078a2.915,2.915,0,0,0,.7,1.988,4.116,4.116,0,0,0,3.161,1.126c3.019,0,3.774-1.82,3.774-3.148,0-2.049-1.725-3.187-3.985-3.131C501.785,109.658,499.827,110.451,499.827,112.759Z" transform="translate(-283.601 -61.787)" fill="#93b5c5"></path><path id="Path_107" data-name="Path 107" d="M536.706,115.57c-.151.134-.28.254-.431.388a5.641,5.641,0,0,1-3.135.863c-2.846,0-4.709-1.863-4.709-4.093a3.951,3.951,0,0,1,.712-2.23,5.11,5.11,0,0,1,4.2-1.842,5.706,5.706,0,0,1,3.562,1.113,3.291,3.291,0,0,1,.807.949l-1.156.332a2.661,2.661,0,0,0-.522-.587,4.158,4.158,0,0,0-2.588-.863c-2.027,0-3.752,1.083-3.752,3.045a3.256,3.256,0,0,0,.561,1.811,4.166,4.166,0,0,0,5.874.4,2.2,2.2,0,0,0,.651-1.41h-3.623v-.927h4.58v4.114h-1.013Z" transform="translate(-300.534 -61.795)" fill="#93b5c5"></path><path id="Path_108" data-name="Path 108" d="M558.45,109.08h1.2v7.793h-1.2Z" transform="translate(-317.607 -62.037)" fill="#93b5c5"></path><path id="Path_109" data-name="Path 109" d="M568.931,114.64a2.508,2.508,0,0,0,.574.474,5.607,5.607,0,0,0,3.075.759c1.807,0,2.8-.63,2.8-1.578,0-1.078-1.294-1.177-2.928-1.294-2.062-.168-2.773-.22-3.4-.763a1.639,1.639,0,0,1-.582-1.294c0-2.217,3.1-2.273,3.881-2.273a6.038,6.038,0,0,1,3.273.785,2.8,2.8,0,0,1,.828.785l-1.061.405a3.272,3.272,0,0,0-.479-.405,4.494,4.494,0,0,0-2.54-.651,5.227,5.227,0,0,0-1.979.319,1.083,1.083,0,0,0-.738.983.863.863,0,0,0,.246.6c.28.306.712.375,1.479.431s1.479.121,2.225.2a8.846,8.846,0,0,1,1.061.151,2.1,2.1,0,0,1,1.889,2.023,2.157,2.157,0,0,1-.431,1.294c-.643.863-1.911,1.233-3.614,1.233a9.75,9.75,0,0,1-2.122-.233,3.887,3.887,0,0,1-2.514-1.531Z" transform="translate(-322.965 -61.801)" fill="#93b5c5"></path><path id="Path_110" data-name="Path 110" d="M591.79,109.08h7.888v.927H596.31v6.866h-1.164v-6.866H591.79Z" transform="translate(-336.568 -62.037)" fill="#93b5c5"></path><path id="Path_111" data-name="Path 111" d="M616,109.08h1.2v7.793H616Z" transform="translate(-350.337 -62.037)" fill="#93b5c5"></path><path id="Path_112" data-name="Path 112" d="M635.988,114.427a3.778,3.778,0,0,1-1.453,1.544,6.685,6.685,0,0,1-3.312.785c-3.342,0-5-1.82-5-4.136a3.528,3.528,0,0,1,1.527-3.092,5.313,5.313,0,0,1,3.45-.979,6.655,6.655,0,0,1,3.135.725,4.313,4.313,0,0,1,1.505,1.527l-1.259.263a2.5,2.5,0,0,0-.9-.962,4.912,4.912,0,0,0-2.437-.582c-1.958,0-3.778.863-3.778,3.066a3.152,3.152,0,0,0,.862,2.217,4.155,4.155,0,0,0,2.993,1,4.313,4.313,0,0,0,2.622-.677,2.613,2.613,0,0,0,.828-.936Z" transform="translate(-356.149 -61.734)" fill="#93b5c5"></path><path id="Path_113" data-name="Path 113" d="M655.085,114.64a2.369,2.369,0,0,0,.569.474,5.606,5.606,0,0,0,3.075.759c1.807,0,2.8-.63,2.8-1.578,0-1.078-1.294-1.177-2.924-1.294-2.066-.168-2.773-.22-3.4-.763a1.634,1.634,0,0,1-.587-1.294c0-2.217,3.1-2.273,3.881-2.273a6.038,6.038,0,0,1,3.273.785,2.8,2.8,0,0,1,.828.785l-1.061.405a3.056,3.056,0,0,0-.479-.405,4.494,4.494,0,0,0-2.54-.651,5.226,5.226,0,0,0-1.979.319,1.082,1.082,0,0,0-.733.983.863.863,0,0,0,.241.6c.28.306.712.375,1.484.431s1.479.121,2.225.2a8.976,8.976,0,0,1,1.061.151,2.113,2.113,0,0,1,1.885,2.023,2.156,2.156,0,0,1-.431,1.294c-.643.863-1.911,1.233-3.614,1.233a9.744,9.744,0,0,1-2.118-.233,3.9,3.9,0,0,1-2.518-1.531Z" transform="translate(-371.96 -61.801)" fill="#93b5c5"></path><path id="Path_114" data-name="Path 114" d="M143.87,18.309c-1.294-.125,1.177,1.186,1.561,1.018C145.742,18.934,144.228,18.408,143.87,18.309Z" transform="translate(-81.613 -10.408)" fill="#eef4f8"></path><path id="Path_115" data-name="Path 115" d="M142.981,19.583c-1.294-.1,1.113,1.272,1.522.949C144.387,19.988,143.477,19.759,142.981,19.583Z" transform="translate(-81.104 -11.134)" fill="#f0f4f8"></path><path id="Path_116" data-name="Path 116" d="M136.015,16.44c-1.324-.112.863,1.035,1.294.944C138.124,17.238,136.317,16.457,136.015,16.44Z" transform="translate(-77.118 -9.346)" fill="#fff"></path><path id="Path_117" data-name="Path 117" d="M135.436,17.994c-1.341-.091.863,1.139,1.294.91C137.084,18.472,135.773,18.063,135.436,17.994Z" transform="translate(-76.785 -10.231)" fill="#f9fdff"></path><path id="Path_118" data-name="Path 118" d="M128.727,15.242c-1.371-.095.686,1.013,1.143.9C130.737,15.971,129.012,15.247,128.727,15.242Z" transform="translate(-72.948 -8.666)" fill="#fff"></path><path id="Path_119" data-name="Path 119" d="M141.992,20.926c-1.294-.073.863,1.156,1.294.953C143.7,21.491,142.324,21,141.992,20.926Z" transform="translate(-80.524 -11.9)" fill="#eef4f8"></path><path id="Path_120" data-name="Path 120" d="M148.433,24.167c-1.251-.069.975,1.294,1.4.975C149.882,24.607,148.894,24.318,148.433,24.167Z" transform="translate(-84.205 -13.743)" fill="#dae7ee"></path><path id="Path_121" data-name="Path 121" d="M114.163,10.4c-1.591-.431-.863.431.121.664C115.72,11.43,115.056,10.593,114.163,10.4Z" transform="translate(-64.4 -5.849)" fill="#fff"></path><path id="Path_122" data-name="Path 122" d="M154.725,27.689c-1.2-.043.893,1.212,1.32,1.065C156.6,28.417,155.065,27.749,154.725,27.689Z" transform="translate(-87.788 -15.747)" fill="#d0dee8"></path><path id="Path_123" data-name="Path 123" d="M134.8,19.547c-1.32-.06.729,1.143,1.195.893C136.34,20,135.158,19.638,134.8,19.547Z" transform="translate(-76.42 -11.116)" fill="#f9fdff"></path><path id="Path_124" data-name="Path 124" d="M128.526,17c-1.359-.06.746,1.156,1.212.863C130.049,17.428,128.858,17.075,128.526,17Z" transform="translate(-72.842 -9.666)" fill="#fff"></path><path id="Path_125" data-name="Path 125" d="M140.956,22.347c-1.294-.056.716,1.147,1.177.927C142.556,22.865,141.305,22.429,140.956,22.347Z" transform="translate(-79.924 -12.709)" fill="#e6eff5"></path><path id="Path_126" data-name="Path 126" d="M122.134,14.724c-1.052-.121-.03.707.431.772C124.3,15.923,122.962,14.75,122.134,14.724Z" transform="translate(-69.201 -8.367)" fill="#fff"></path><path id="Path_127" data-name="Path 127" d="M146.978,25.417c-1.268-.056.707,1.152,1.169.962C148.643,26,147.328,25.491,146.978,25.417Z" transform="translate(-83.354 -14.455)" fill="#d8e5ef"></path><path id="Path_128" data-name="Path 128" d="M107.035,8.592c-2.557-.587.431,1.359.988.582C107.85,8.842,107.38,8.7,107.035,8.592Z" transform="translate(-60.295 -4.823)" fill="#fff"></path><path id="Path_129" data-name="Path 129" d="M160.9,31.509c-1.19-.03.893,1.251,1.324,1.13C162.864,32.333,161.247,31.565,160.9,31.509Z" transform="translate(-91.304 -17.92)" fill="#c4d6e1"></path><path id="Path_130" data-name="Path 130" d="M134.132,21.249c-1.233-.039.431,1.031.91.9C135.852,21.934,134.485,21.249,134.132,21.249Z" transform="translate(-76.032 -12.084)" fill="#f6f9fc"></path><path id="Path_131" data-name="Path 131" d="M114.878,12.486c-1.479-.41-.763.543.147.712C116.375,13.513,115.689,12.65,114.878,12.486Z" transform="translate(-64.852 -7.044)" fill="#fff"></path><path id="Path_132" data-name="Path 132" d="M158.6,32.327c-1.294-.065.863,1.384,1.324,1.018C160,32.789,159.051,32.478,158.6,32.327Z" transform="translate(-89.971 -18.384)" fill="#c4d8e2"></path><path id="Path_133" data-name="Path 133" d="M152.861,28.738c-1.259-.052.7,1.173,1.16,1.013C154.651,29.449,153.181,28.777,152.861,28.738Z" transform="translate(-86.701 -16.343)" fill="#d0dee8"></path><path id="Path_134" data-name="Path 134" d="M128.292,18.879c-1.246-.03.466,1.048.94.888C130,19.522,128.637,18.879,128.292,18.879Z" transform="translate(-72.711 -10.737)" fill="#fff"></path><path id="Path_135" data-name="Path 135" d="M139.856,23.868c-1.32-.052.686,1.268,1.143.837C141.089,24.217,140.24,23.972,139.856,23.868Z" transform="translate(-79.289 -13.574)" fill="#e6eff5"></path><path id="Path_136" data-name="Path 136" d="M99.853,7.106c-2.342-.492-.276.97.746.759C101.285,7.632,100.138,7.166,99.853,7.106Z" transform="translate(-56.179 -3.984)" fill="#fff"></path><path id="Path_137" data-name="Path 137" d="M122.375,16.77c-1.259,0,.66,1.216,1.147.832C123.768,17.145,122.715,16.835,122.375,16.77Z" transform="translate(-69.36 -9.538)" fill="#fff"></path><path id="Path_138" data-name="Path 138" d="M166.926,35.63c-1.2-.022.949,1.367,1.4,1.2C168.768,36.359,167.353,35.755,166.926,35.63Z" transform="translate(-94.733 -20.264)" fill="#b8cddb"></path><path id="Path_139" data-name="Path 139" d="M108.217,10.881c-1.88-.431-.388.824.518.785C109.765,11.657,108.661,10.907,108.217,10.881Z" transform="translate(-61.033 -6.137)" fill="#fff"></path><path id="Path_140" data-name="Path 140" d="M145.4,26.738c-1.294-.052.518,1.134,1.018.923C147,27.316,145.746,26.781,145.4,26.738Z" transform="translate(-82.433 -15.206)" fill="#dae7ee"></path><path id="Path_141" data-name="Path 141" d="M109.45,13.217c-1.816-.38-.069,1.082.746.819C110.774,13.756,109.748,13.286,109.45,13.217Z" transform="translate(-61.796 -7.481)" fill="#fff"></path><path id="Path_142" data-name="Path 142" d="M115.593,14.705c-1.4-.362-.647.621.173.763C117.05,15.749,116.339,14.852,115.593,14.705Z" transform="translate(-65.299 -8.318)" fill="#fff"></path><path id="Path_143" data-name="Path 143" d="M150.893,29.833c-1-.129-.073.776.392.863.737.336,1.134-.134.332-.561a2.342,2.342,0,0,0-.725-.3Z" transform="translate(-85.566 -16.96)" fill="#d1dfe9"></path><path id="Path_144" data-name="Path 144" d="M79.788.143c-.431-.185-2.3-.289-1.259.341C79.343,1.027,82.168.932,79.788.143Z" transform="translate(-44.485 -0.001)" fill="#fff"></path><path id="Path_145" data-name="Path 145" d="M101.474,9.486c-2.48-.518.539,1.492.97.6C102.268,9.732,101.823,9.6,101.474,9.486Z" transform="translate(-57.162 -5.346)" fill="#fff"></path><path id="Path_146" data-name="Path 146" d="M133.44,23.048c-.832-.1-.263.681.2.776.38.229,1.242.082.647-.41A1.859,1.859,0,0,0,133.44,23.048Z" transform="translate(-75.651 -13.103)" fill="#f6f9fc"></path><path id="Path_147" data-name="Path 147" d="M128.075,20.88c-1.117.022.328,1.074.832.884C129.645,21.5,128.437,20.871,128.075,20.88Z" transform="translate(-72.606 -11.875)" fill="#fff"></path><path id="Path_148" data-name="Path 148" d="M164.142,36.208c-1.294-.056.746,1.294,1.233,1.121C165.919,36.924,164.526,36.294,164.142,36.208Z" transform="translate(-93.113 -20.592)" fill="#baceda"></path><path id="Path_149" data-name="Path 149" d="M138.692,25.48c-1.259,0,.5,1.294,1,.8C139.865,25.816,139.046,25.558,138.692,25.48Z" transform="translate(-78.626 -14.491)" fill="#e6edf3"></path><path id="Path_150" data-name="Path 150" d="M92.479,5.917c-.755-.293-1.842,0-.565.539C93.052,7,94.389,6.508,92.479,5.917Z" transform="translate(-51.941 -3.299)" fill="#fff"></path><path id="Path_151" data-name="Path 151" d="M156.145,33.206c-1.294-.073.461,1.143.979,1C157.888,33.978,156.5,33.232,156.145,33.206Z" transform="translate(-88.54 -18.883)" fill="#c5d8e2"></path><path id="Path_152" data-name="Path 152" d="M143.826,28.139c-1.294-.03.513,1.324,1.026.789C144.935,28.463,144.193,28.23,143.826,28.139Z" transform="translate(-81.539 -16.004)" fill="#d8e5ef"></path><path id="Path_153" data-name="Path 153" d="M84.99,5.127c-.306-.06-1.38-.319-1.229.211C84.507,6.252,87.5,5.968,84.99,5.127Z" transform="translate(-47.63 -2.85)" fill="#fff"></path><path id="Path_154" data-name="Path 154" d="M82.3,2.563c-.431-.078-1.061-.276-1.432,0C81.15,3.633,85.023,3.438,82.3,2.563Z" transform="translate(-45.994 -1.377)" fill="#fff"></path><path id="Path_155" data-name="Path 155" d="M116.385,17.077c-1.462-.332-.272.932.466.863C117.74,17.9,116.812,17.115,116.385,17.077Z" transform="translate(-65.799 -9.68)" fill="#fff"></path><path id="Path_156" data-name="Path 156" d="M148.78,31c-1.264-.056.233,1.108.819.9C150.32,31.662,149.129,31.023,148.78,31Z" transform="translate(-84.336 -17.628)" fill="#d1dfe9"></path><path id="Path_157" data-name="Path 157" d="M103.253,12c-1.591-.362-.518.8.358.832C104.835,12.968,103.856,12.067,103.253,12Z" transform="translate(-58.26 -6.784)" fill="#fff"></path><path id="Path_158" data-name="Path 158" d="M94.634,8.472c-2.652-.509.578,1.566.988.574A1.583,1.583,0,0,0,94.634,8.472Z" transform="translate(-53.233 -4.772)" fill="#fff"></path><path id="Path_159" data-name="Path 159" d="M161.194,36.805c-1.376-.082.526,1.238,1.065,1.039C162.889,37.5,161.556,36.861,161.194,36.805Z" transform="translate(-91.398 -20.93)" fill="#bcd1dd"></path><path id="Path_160" data-name="Path 160" d="M110.754,15.715c-1.337-.315-.461.776.276.863C112.212,16.772,111.388,15.806,110.754,15.715Z" transform="translate(-62.595 -8.905)" fill="#fff"></path><path id="Path_161" data-name="Path 161" d="M132.674,25c-1.126.039.259,1.2.8.824C133.912,25.431,133,25,132.674,25Z" transform="translate(-75.213 -14.218)" fill="#f4f8fb"></path><path id="Path_162" data-name="Path 162" d="M153.53,34.124c-1.354-.086.2,1.082.789.923C155.152,34.866,153.9,34.128,153.53,34.124Z" transform="translate(-87.012 -19.405)" fill="#c8dbe5"></path><path id="Path_163" data-name="Path 163" d="M170.4,41.12c-1.85.043,2.67,2.3,1.087.565A2.8,2.8,0,0,0,170.4,41.12Z" transform="translate(-96.657 -23.386)" fill="#b0c8d5"></path><path id="Path_164" data-name="Path 164" d="M137.367,27.2c-1.449.03.841,1.57.9.543A1.2,1.2,0,0,0,137.367,27.2Z" transform="translate(-77.853 -15.47)" fill="#e0ecf2"></path><path id="Path_165" data-name="Path 165" d="M179.351,45.727c-1.337-.078,1.195,1.867,1.613,1.294C180.835,46.357,179.95,45.934,179.351,45.727Z" transform="translate(-101.784 -26.005)" fill="#aac4d1"></path><path id="Path_166" data-name="Path 166" d="M96.887,11.135c-2.639-.431,1.225,1.777.932.5A1.906,1.906,0,0,0,96.887,11.135Z" transform="translate(-54.577 -6.301)" fill="#fff"></path><path id="Path_167" data-name="Path 167" d="M105.067,14.66c-1.389-.306-.431.8.315.863C106.615,15.742,105.718,14.729,105.067,14.66Z" transform="translate(-59.354 -8.307)" fill="#fff"></path><path id="Path_168" data-name="Path 168" d="M158.082,37.443c-1.449-.1.267,1.156.863.953C159.674,38.111,158.432,37.473,158.082,37.443Z" transform="translate(-89.585 -21.292)" fill="#bdd3df"></path><path id="Path_169" data-name="Path 169" d="M166.848,41.36c-1.518-.134.789,1.566,1.294,1.018C168.124,41.813,167.313,41.507,166.848,41.36Z" transform="translate(-94.602 -23.519)" fill="#b3cbd8"></path><path id="Path_170" data-name="Path 170" d="M87.782,7.82c-2.074-.4-.677.893.431.863C89.426,8.717,88.373,7.854,87.782,7.82Z" transform="translate(-49.319 -4.404)" fill="#fff"></path><path id="Path_171" data-name="Path 171" d="M74.044,2.054c-.431-.052-1.4-.354-1.544.168C73.121,3.188,76.709,2.895,74.044,2.054Z" transform="translate(-41.234 -1.092)" fill="#fff"></path><path id="Path_172" data-name="Path 172" d="M175.4,45.614c-1.453-.108,1,1.76,1.471,1.208C176.841,46.183,175.961,45.8,175.4,45.614Z" transform="translate(-99.498 -25.94)" fill="#acc6d4"></path><path id="Path_173" data-name="Path 173" d="M136.071,29c-.863-.065-.384.9.224.863C137.24,29.927,136.723,29,136.071,29Z" transform="translate(-77.122 -16.489)" fill="#e0eaf0"></path><path id="Path_174" data-name="Path 174" d="M188.968,51.39c-1.242.03,1.173,1.863,1.725,1.63C190.939,52.3,189.559,51.614,188.968,51.39Z" transform="translate(-107.273 -29.227)" fill="#a2bfcd"></path><path id="Path_175" data-name="Path 175" d="M99.372,13.943c-1.583-.289-.2.979.561.936C100.985,14.871,99.863,13.943,99.372,13.943Z" transform="translate(-56.103 -7.906)" fill="#fff"></path><path id="Path_176" data-name="Path 176" d="M77.39,4.761c-.556-.242-2.066-.026-.91.548C77.532,5.939,79.65,5.447,77.39,4.761Z" transform="translate(-43.256 -2.653)" fill="#fff"></path><path id="Path_177" data-name="Path 177" d="M90.7,10.611c-1.777-.345-.518.906.431.9C92.373,11.607,91.334,10.636,90.7,10.611Z" transform="translate(-51.076 -6.001)" fill="#fff"></path><path id="Path_178" data-name="Path 178" d="M171.349,45.512c-1.527-.116.612,1.44,1.208,1.173C173.048,46.206,171.754,45.62,171.349,45.512Z" transform="translate(-97.146 -25.88)" fill="#adc6d4"></path><path id="Path_179" data-name="Path 179" d="M93.707,13.542c-1.911-.306.332,1.44,1.044.863C94.893,13.913,94.086,13.659,93.707,13.542Z" transform="translate(-52.867 -7.681)" fill="#fff"></path><path id="Path_180" data-name="Path 180" d="M184.647,50.919c-1.328-.039.819,1.557,1.324,1.514C187.07,52.325,185.087,50.954,184.647,50.919Z" transform="translate(-104.772 -28.959)" fill="#a4c1ce"></path><path id="Path_181" data-name="Path 181" d="M80.832,7.592c-2.536-.388-.224,1.272.9.863C82.307,8.058,81.16,7.657,80.832,7.592Z" transform="translate(-45.322 -4.284)" fill="#fff"></path><path id="Path_182" data-name="Path 182" d="M180.171,50.417c-1.656-.181,1.384,2.156,1.527,1.156a2.437,2.437,0,0,0-1.527-1.156Z" transform="translate(-102.189 -28.668)" fill="#a6c2cf"></path><path id="Path_183" data-name="Path 183" d="M167.067,45.395c-1.635-.155.384,1.315,1.044,1.061C168.71,46.081,167.442,45.468,167.067,45.395Z" transform="translate(-94.662 -25.811)" fill="#afc8d5"></path><path id="Path_184" data-name="Path 184" d="M199.323,58.29c-1.2.086,1.13,1.88,1.643,1.915h0C202.135,60.088,199.854,58.333,199.323,58.29Z" transform="translate(-113.169 -33.151)" fill="#9ebbca"></path><path id="Path_185" data-name="Path 185" d="M84.314,10.51c-2.946-.354,1.41,1.915,1.031.526a2.036,2.036,0,0,0-1.031-.526Z" transform="translate(-47.368 -5.956)" fill="#fff"></path><path id="Path_186" data-name="Path 186" d="M189.613,56.487c-1.4-.078.729,1.626,1.255,1.626h0C192.226,58.169,190.122,56.487,189.613,56.487Z" transform="translate(-107.573 -32.124)" fill="#a2becc"></path><path id="Path_187" data-name="Path 187" d="M96.871,16.6c-1.566-.207.285,1.251.932,1.022C98.4,17.263,97.238,16.668,96.871,16.6Z" transform="translate(-54.746 -9.432)" fill="#fff"></path><path id="Path_188" data-name="Path 188" d="M175.52,49.918c-1.591-.142.6,1.5,1.221,1.264C177.371,50.734,175.947,50.018,175.52,49.918Z" transform="translate(-99.502 -28.385)" fill="#aac3d0"></path><path id="Path_189" data-name="Path 189" d="M69.694,4.886c-.474-.2-2.126-.073-1.1.561C69.647,6.154,72.179,5.615,69.694,4.886Z" transform="translate(-38.825 -2.73)" fill="#fff"></path><path id="Path_190" data-name="Path 190" d="M194.545,57.4c-1.294,0,.936,1.755,1.445,1.773C197.279,59.177,195.05,57.413,194.545,57.4Z" transform="translate(-110.418 -32.645)" fill="#9ebccb"></path><path id="Path_191" data-name="Path 191" d="M78.206,10.829c-2.23-.3-.229,1.238.824.992C80.018,11.588,78.646,10.851,78.206,10.829Z" transform="translate(-43.904 -6.137)" fill="#fff"></path><path id="Path_192" data-name="Path 192" d="M88.1,13.526c-1.777-.259-.108,1.087.7,1C89.938,14.488,88.609,13.531,88.1,13.526Z" transform="translate(-49.658 -7.674)" fill="#fff"></path><path id="Path_193" data-name="Path 193" d="M73.889,7.825c-2.7-.358-.233,1.38.962.863C75.424,8.3,74.238,7.894,73.889,7.825Z" transform="translate(-41.333 -4.423)" fill="#fff"></path><path id="Path_194" data-name="Path 194" d="M170.636,49.382c-2.269-.211,1.885,2.182,1.147.66A2.355,2.355,0,0,0,170.636,49.382Z" transform="translate(-96.657 -28.078)" fill="#acc5d2"></path><path id="Path_195" data-name="Path 195" d="M100.191,19.818c-1.346-.142.578,1.393,1.091,1.057C101.506,20.357,100.605,19.938,100.191,19.818Z" transform="translate(-56.716 -11.266)" fill="#fff"></path><path id="Path_196" data-name="Path 196" d="M184.542,55.539c-1.617-.155.988,2,1.561,1.428C186.168,56.255,185.133,55.733,184.542,55.539Z" transform="translate(-104.659 -31.582)" fill="#a2bfcd"></path><path id="Path_197" data-name="Path 197" d="M91.954,16.684c-1.725-.22.6,1.514,1.19.97C93.222,17.1,92.385,16.809,91.954,16.684Z" transform="translate(-51.942 -9.478)" fill="#fff"></path><path id="Path_198" data-name="Path 198" d="M165.633,48.818c-1.811-.224.138,1.186.9,1.009C167.367,49.586,166.017,48.857,165.633,48.818Z" transform="translate(-93.776 -27.751)" fill="#adc7d3"></path><path id="Path_199" data-name="Path 199" d="M179.305,54.562c-1.492-.173.254,1.315.888,1.333C181.634,56.071,179.922,54.566,179.305,54.562Z" transform="translate(-101.643 -31.023)" fill="#a3c0ce"></path><path id="Path_200" data-name="Path 200" d="M82.616,13.963c-1.928-.242-.039,1.173.819,1.048C84.565,14.882,83.108,13.963,82.616,13.963Z" transform="translate(-46.511 -7.926)" fill="#fff"></path><path id="Path_201" data-name="Path 201" d="M168.271,52.483c-1.652-.289-.229.957.53,1.031.289.091.949.116.668-.323A2.243,2.243,0,0,0,168.271,52.483Z" transform="translate(-95.266 -29.824)" fill="#abc5d2"></path><path id="Path_202" data-name="Path 202" d="M173.848,53.516c-.285-.095-.893-.082-.638.341C174.512,55.466,176.535,54.508,173.848,53.516Z" transform="translate(-98.476 -30.409)" fill="#a7c2cf"></path><path id="Path_203" data-name="Path 203" d="M162.452,51.374c-.246-.052-1-.211-.863.211C162.538,52.741,165.1,52.327,162.452,51.374Z" transform="translate(-91.893 -29.177)" fill="#adc6d4"></path><path id="Path_204" data-name="Path 204" d="M67,8.578c-2.8-.319-.371,1.432.94.962C68.746,9.169,67.41,8.617,67,8.578Z" transform="translate(-37.373 -4.857)" fill="#fff"></path><path id="Path_205" data-name="Path 205" d="M193.855,62.38c-1.078.643,2.933,2.976,1.885,1.151A2.765,2.765,0,0,0,193.855,62.38Z" transform="translate(-110.146 -35.477)" fill="#9ebbcb"></path><path id="Path_206" data-name="Path 206" d="M72.117,11.661c-2.549-.28.078,1.548,1.147.966C73.717,12.11,72.505,11.747,72.117,11.661Z" transform="translate(-40.403 -6.616)" fill="#fff"></path><path id="Path_207" data-name="Path 207" d="M188.12,60.875c-.893.492,1.186,1.785,1.768,1.686C190.691,62.027,188.711,60.8,188.12,60.875Z" transform="translate(-106.866 -34.62)" fill="#9fbccc"></path><path id="Path_208" data-name="Path 208" d="M182.207,59.35c-1.367.375,2.454,2.519,1.781,1.018A2.532,2.532,0,0,0,182.207,59.35Z" transform="translate(-103.458 -33.754)" fill="#a1bfcd"></path><path id="Path_209" data-name="Path 209" d="M176.535,57.842h0c-.3-.1-.919-.091-.664.349h0C177.255,59.947,179.386,58.937,176.535,57.842Z" transform="translate(-99.99 -32.867)" fill="#a3c0ce"></path><path id="Path_210" data-name="Path 210" d="M52.992,7.089c-.612-.224-2.467.112-1.225.8C53.048,8.676,55.808,7.792,52.992,7.089Z" transform="translate(-29.205 -3.993)" fill="#fff"></path><path id="Path_211" data-name="Path 211" d="M59.088,10.218c-2.993-.254-.431,1.578.992,1.057C61.015,10.86,59.553,10.239,59.088,10.218Z" transform="translate(-32.816 -5.798)" fill="#fff"></path><path id="Path_212" data-name="Path 212" d="M197.843,68.716c-.863.617,1.268,2.113,1.967,2.018C200.586,70.075,198.55,68.638,197.843,68.716Z" transform="translate(-112.405 -39.079)" fill="#9bbaca"></path><path id="Path_213" data-name="Path 213" d="M65.232,13.315c-1.967-.285-1.113.975.22,1.091C67.371,14.695,66.508,13.431,65.232,13.315Z" transform="translate(-36.442 -7.549)" fill="#fff"></path><path id="Path_214" data-name="Path 214" d="M191.4,66.575c-1,.5,1.186,1.949,1.824,1.85C194.13,67.864,192.047,66.489,191.4,66.575Z" transform="translate(-108.709 -37.861)" fill="#9dbbcb"></path><path id="Path_215" data-name="Path 215" d="M71.4,16.509c-2.514-.207.543,1.725,1.432,1C72.956,16.885,71.878,16.634,71.4,16.509Z" transform="translate(-40.056 -9.381)" fill="#fff"></path><path id="Path_216" data-name="Path 216" d="M184.878,64.41c-1.16.38,1.324,2.027,1.911,1.617C187.06,65.195,185.594,64.466,184.878,64.41Z" transform="translate(-104.973 -36.632)" fill="#9ebbcb"></path><path id="Path_217" data-name="Path 217" d="M178.246,62.2c-1.238.276,1.074,1.626,1.609,1.522C180.954,63.368,178.8,62.113,178.246,62.2Z" transform="translate(-101.17 -35.375)" fill="#a2becc"></path><path id="Path_218" data-name="Path 218" d="M59.578,15.466c-3.881-.1,1.932,2.363,1.4.625a2.463,2.463,0,0,0-1.4-.625Z" transform="translate(-33.12 -8.795)" fill="#fff"></path><path id="Path_219" data-name="Path 219" d="M66.788,18.548c-2.674-.155.5,1.768,1.5,1.078C68.6,18.975,67.271,18.652,66.788,18.548Z" transform="translate(-37.39 -10.544)" fill="#fff"></path><path id="Path_220" data-name="Path 220" d="M52.6,12.364c-3.316-.185-.237,1.88,1.233,1.078C54.515,12.856,53.062,12.416,52.6,12.364Z" transform="translate(-29.072 -7.025)" fill="#fff"></path><path id="Path_221" data-name="Path 221" d="M179.586,66.715c-1.294.293,1.134,1.781,1.725,1.678C182.463,68,180.169,66.629,179.586,66.715Z" transform="translate(-101.924 -37.941)" fill="#9ebccb"></path><path id="Path_222" data-name="Path 222" d="M45.462,9.219c-.932-.272-2.76.41-1.018,1.052C46,10.953,48.274,9.8,45.462,9.219Z" transform="translate(-24.866 -5.209)" fill="#fff"></path><path id="Path_223" data-name="Path 223" d="M186.775,69.63c-1.233.4,1.341,2.191,1.992,1.794C189.156,70.54,187.547,69.69,186.775,69.63Z" transform="translate(-106.038 -39.601)" fill="#9dbbcb"></path><path id="Path_224" data-name="Path 224" d="M193.926,72.534c-1.113.518,1.186,2.156,1.889,2.031C196.841,73.988,194.65,72.44,193.926,72.534Z" transform="translate(-110.122 -41.25)" fill="#9bbaca"></path><path id="Path_225" data-name="Path 225" d="M201.069,75.416c-1,.643,1.246,2.342,2.018,2.238C204.011,76.96,201.854,75.334,201.069,75.416Z" transform="translate(-114.213 -42.89)" fill="#99b9c9"></path><path id="Path_226" data-name="Path 226" d="M62.714,21.206c-2.907-.091.565,1.911,1.635,1.1C64.607,21.594,63.236,21.31,62.714,21.206Z" transform="translate(-35.024 -12.059)" fill="#fff"></path><path id="Path_227" data-name="Path 227" d="M180.117,71.24c-1.333.332,1.35,2.156,2.01,1.82C182.692,72.215,180.854,71.313,180.117,71.24Z" transform="translate(-102.231 -40.516)" fill="#9ebbcb"></path><path id="Path_228" data-name="Path 228" d="M54.673,18.214c-1.333-.25-1.98.677-.431,1.134.509.19,2.445.431,1.915-.513A2.661,2.661,0,0,0,54.673,18.214Z" transform="translate(-30.337 -10.335)" fill="#fff"></path><path id="Path_229" data-name="Path 229" d="M187.779,75c-1.328.431,1.341,2.385,2.07,1.992C190.375,76.044,188.6,75.043,187.779,75Z" transform="translate(-106.589 -42.655)" fill="#9bbaca"></path><path id="Path_230" data-name="Path 230" d="M46.522,15.3c-3.558-.086-.164,2.113,1.384,1.151C48.57,15.771,47.044,15.344,46.522,15.3Z" transform="translate(-25.568 -8.699)" fill="#fff"></path><path id="Path_231" data-name="Path 231" d="M195.538,78.685c-1.246.53,1.173,2.372,1.949,2.247C198.652,80.337,196.323,78.59,195.538,78.685Z" transform="translate(-111.01 -44.749)" fill="#99b9c9"></path><path id="Path_232" data-name="Path 232" d="M38.26,12.248c-.638-.164-2.588.185-1.522,1.022C38.26,14.357,41.719,12.981,38.26,12.248Z" transform="translate(-20.718 -6.944)" fill="#fff"></path><path id="Path_233" data-name="Path 233" d="M203.345,82.455c-1.164.651,1.216,2.588,2.074,2.476C206.515,84.224,204.221,82.361,203.345,82.455Z" transform="translate(-115.47 -46.893)" fill="#96b8c8"></path><path id="Path_234" data-name="Path 234" d="M59.3,24.495a1.489,1.489,0,0,0-1.208.237c-.224.561.686.811,1.121.953h0C61.734,26.3,61.557,24.736,59.3,24.495Z" transform="translate(-33.021 -13.92)" fill="#fff"></path><path id="Path_235" data-name="Path 235" d="M76.091,32.895c-.522-.095-1.294-.323-1.691.095.25.832,2.372,1.186,3,.668C77.281,33.171,76.539,33.05,76.091,32.895Z" transform="translate(-42.315 -18.624)" fill="#fff"></path><path id="Path_236" data-name="Path 236" d="M50.3,21.794a1.807,1.807,0,0,0-1.371.28c-.336.569.591.884,1.039,1.013A2.447,2.447,0,0,0,52,22.924C52.272,22.144,50.87,21.863,50.3,21.794Z" transform="translate(-27.786 -12.376)" fill="#fff"></path><path id="Path_237" data-name="Path 237" d="M66.971,30.873c-4.058-.634-.177,2.118,1.294.863C68.239,31.175,67.428,31.015,66.971,30.873Z" transform="translate(-37.068 -17.504)" fill="#fff"></path><path id="Path_238" data-name="Path 238" d="M41.077,19.1c-3.881.039.112,2.5,1.635,1.169C43.126,19.488,41.664,19.165,41.077,19.1Z" transform="translate(-22.426 -10.863)" fill="#fff"></path><path id="Path_239" data-name="Path 239" d="M187.6,81.22c-1.462.431,1.294,2.635,2.156,2.251C190.468,82.505,188.484,81.28,187.6,81.22Z" transform="translate(-106.454 -46.192)" fill="#99bac9"></path><path id="Path_240" data-name="Path 240" d="M195.941,86.07c-1.544.492,1.57,3.282,2.372,2.333C198.49,87.247,196.994,86.169,195.941,86.07Z" transform="translate(-111.198 -48.951)" fill="#96b8c8"></path><path id="Path_241" data-name="Path 241" d="M31.649,16.266c-2.264-.254-2.644,1.475-.211,1.6C33.663,18.1,34,16.43,31.649,16.266Z" transform="translate(-16.935 -9.237)" fill="#fff"></path><path id="Path_242" data-name="Path 242" d="M66.216,34.92a3.019,3.019,0,0,0-1.755.035c-.863.651.9,1.13,1.419,1.151C67.64,36.352,68.183,35.356,66.216,34.92Z" transform="translate(-36.529 -19.796)" fill="#fff"></path><path id="Path_243" data-name="Path 243" d="M57.371,28.592c-.863-.375-3.075.112-1.359,1C57.427,30.381,60.308,29.527,57.371,28.592Z" transform="translate(-31.496 -16.188)" fill="#fff"></path><path id="Path_244" data-name="Path 244" d="M177.749,80.75c-1.475.384,1.294,2.588,2.126,2.281C180.772,82.152,178.6,80.832,177.749,80.75Z" transform="translate(-100.85 -45.925)" fill="#9bbaca"></path><path id="Path_245" data-name="Path 245" d="M47.521,26.306c-1.5-.539-3.485.608-1.044,1.333C48.06,28.182,50.091,27.061,47.521,26.306Z" transform="translate(-25.782 -14.882)" fill="#fff"></path><path id="Path_246" data-name="Path 246" d="M166.926,78.33c-1.35.375,1.4,2.626,2.187,2.273C169.707,79.624,167.78,78.5,166.926,78.33Z" transform="translate(-94.728 -44.549)" fill="#9ebbcb"></path><path id="Path_247" data-name="Path 247" d="M186.076,86.44c-1.6.431,1.246,2.872,2.156,2.5C189.22,87.975,187.029,86.492,186.076,86.44Z" transform="translate(-105.555 -49.161)" fill="#98b9c8"></path><path id="Path_248" data-name="Path 248" d="M156.052,74.23c-1.186.3,1.367,2.626,2.079,2.264C158.575,75.537,156.871,74.463,156.052,74.23Z" transform="translate(-88.576 -42.217)" fill="#a2becc"></path><path id="Path_249" data-name="Path 249" d="M37.288,23.985a2.728,2.728,0,0,0-2.333.306C34.2,26.538,41.312,25.438,37.288,23.985Z" transform="translate(-19.849 -13.574)" fill="#fff"></path><path id="Path_250" data-name="Path 250" d="M56.026,33.307c-.656-.254-2.911-.1-1.859.919C55.443,35.347,59.372,34.347,56.026,33.307Z" transform="translate(-30.651 -18.881)" fill="#fff"></path><path id="Path_251" data-name="Path 251" d="M194.755,92.36c-1.958.474,2.23,4.231,2.54,2.247A3.019,3.019,0,0,0,194.755,92.36Z" transform="translate(-110.469 -52.528)" fill="#96b8c7"></path><path id="Path_252" data-name="Path 252" d="M174.764,84.68c-1.6.392,1.337,2.959,2.247,2.467C177.7,86.082,175.713,84.818,174.764,84.68Z" transform="translate(-99.129 -48.16)" fill="#9abac9"></path><path id="Path_253" data-name="Path 253" d="M26.5,21.547c-.806-.233-3.209-.185-2.644,1.108C24.914,24.135,29.839,22.772,26.5,21.547Z" transform="translate(-13.522 -12.193)" fill="#fff"></path><path id="Path_254" data-name="Path 254" d="M162.945,80.929c-1.389.349.979,2.445,1.725,2.488C166.477,83.313,163.777,80.868,162.945,80.929Z" transform="translate(-92.429 -46.026)" fill="#9ebbcb"></path><path id="Path_255" data-name="Path 255" d="M45.268,31.582c-1.013-.431-3.515.371-1.669,1.333C45.121,33.812,48.468,32.557,45.268,31.582Z" transform="translate(-24.421 -17.894)" fill="#fff"></path><path id="Path_256" data-name="Path 256" d="M203.862,98.517c-1.609.75.966,3.252,2.156,3.127C207.567,100.825,205.057,98.435,203.862,98.517Z" transform="translate(-115.651 -56.029)" fill="#95b7c7"></path><path id="Path_257" data-name="Path 257" d="M15.247,18.994c-.953-.41-4.313.2-2.691,1.535C13.815,21.573,18.417,20.175,15.247,18.994Z" transform="translate(-6.895 -10.731)" fill="#fff"></path><path id="Path_258" data-name="Path 258" d="M183.076,91.37c-1.794.431,1.294,3.351,2.333,2.7C186.147,92.9,184.141,91.482,183.076,91.37Z" transform="translate(-103.809 -51.965)" fill="#96b8c8"></path><path id="Path_259" data-name="Path 259" d="M55.874,38.651c-1.031-.392-3.511.371-1.561,1.315C55.856,40.79,59.057,39.505,55.874,38.651Z" transform="translate(-30.478 -21.922)" fill="#fff"></path><path id="Path_260" data-name="Path 260" d="M33.892,29.832c-1.065-.47-3.843.431-1.945,1.531C33.513,32.355,37.178,30.8,33.892,29.832Z" transform="translate(-17.803 -16.894)" fill="#fff"></path><path id="Path_261" data-name="Path 261" d="M170.378,88.11c-1.725.392,1.147,3.148,2.156,2.717C173.535,89.818,171.374,88.235,170.378,88.11Z" transform="translate(-96.593 -50.111)" fill="#9abac9"></path><path id="Path_262" data-name="Path 262" d="M3.547,16.361a4.313,4.313,0,0,0-3.166.431C-2,19.583,7.812,18.125,3.547,16.361Z" transform="translate(-0.003 -9.233)" fill="#fff"></path><path id="Path_263" data-name="Path 263" d="M191.913,98.448c-1.811.6.863,3.23,2.044,3.105C195.739,100.871,193.108,98.37,191.913,98.448Z" transform="translate(-108.8 -55.989)" fill="#96b8c7"></path><path id="Path_264" data-name="Path 264" d="M44.483,37.751a2.5,2.5,0,0,0-2.411.509C41.831,40.83,48.959,39.105,44.483,37.751Z" transform="translate(-23.926 -21.423)" fill="#fff"></path><path id="Path_265" data-name="Path 265" d="M21.87,27.942c-.919-.28-3.58,0-2.721,1.423C20.481,30.986,25.561,29.171,21.87,27.942Z" transform="translate(-10.796 -15.836)" fill="#fff"></path><path id="Path_266" data-name="Path 266" d="M178.391,95.81c-1.98.431,1.074,3.575,2.273,2.993C181.734,97.677,179.53,95.892,178.391,95.81Z" transform="translate(-101.087 -54.49)" fill="#96b8c8"></path><path id="Path_267" data-name="Path 267" d="M164.551,90.88c-1.9.349.944,3.45,2.109,2.92C167.713,92.756,165.612,91.027,164.551,90.88Z" transform="translate(-93.225 -51.686)" fill="#9abac9"></path><path id="Path_268" data-name="Path 268" d="M201.3,105.995c-1.9.72.794,3.631,2.156,3.476C205.31,108.651,202.657,105.87,201.3,105.995Z" transform="translate(-114.114 -60.28)" fill="#95b7c7"></path><path id="Path_269" data-name="Path 269" d="M103.3,66.464c-1.548-.026-2.049,2.35-.2,2.2C104.465,68.659,104.969,66.343,103.3,66.464Z" transform="translate(-57.962 -37.798)" fill="#c2d6e1"></path><path id="Path_270" data-name="Path 270" d="M9.095,25.961c-1.039-.276-3.881.03-3.166,1.6C7.215,29.342,12.907,27.276,9.095,25.961Z" transform="translate(-3.309 -14.713)" fill="#fff"></path><path id="Path_271" data-name="Path 271" d="M32.114,36.709c-1.259-.5-4.071.733-1.954,1.833C31.976,39.624,35.641,37.632,32.114,36.709Z" transform="translate(-16.719 -20.812)" fill="#fff"></path><path id="Path_272" data-name="Path 272" d="M45.311,44.7c-.863-.2-3.131.069-2.407,1.367C44.375,47.941,49.335,45.738,45.311,44.7Z" transform="translate(-24.323 -25.39)" fill="#fff"></path><path id="Path_273" data-name="Path 273" d="M187.069,104.1c-2.381.552,1.622,4.848,2.7,2.937C189.946,105.622,188.393,104.242,187.069,104.1Z" transform="translate(-105.97 -59.205)" fill="#95b7c7"></path><path id="Path_274" data-name="Path 274" d="M211.3,113.885c-1.9.841.6,3.756,1.988,3.92C215.79,117.486,212.914,113.639,211.3,113.885Z" transform="translate(-119.786 -64.763)" fill="#95b8c6"></path><path id="Path_275" data-name="Path 275" d="M60.915,52.285c-.815-.078-2.066-.039-2.415.863C58.836,55.8,65.211,53.255,60.915,52.285Z" transform="translate(-33.272 -29.721)" fill="#fff"></path><path id="Path_276" data-name="Path 276" d="M157.249,92.8c-1.954.323.3,3.2,1.531,3.166C160.833,95.655,158.461,92.813,157.249,92.8Z" transform="translate(-88.997 -52.778)" fill="#9bbaca"></path><path id="Path_277" data-name="Path 277" d="M171.918,99.53c-2.178.47.824,3.938,2.256,3.23C175.333,101.574,173.142,99.646,171.918,99.53Z" transform="translate(-97.339 -56.606)" fill="#96b8c8"></path><path id="Path_278" data-name="Path 278" d="M18.885,35.7c-1.018-.168-2.445-.086-3.019.893C15.68,39.83,23.737,37.2,18.885,35.7Z" transform="translate(-9.023 -20.264)" fill="#fff"></path><path id="Path_279" data-name="Path 279" d="M66.042,59.087c-.815-.052-1.915.082-2.333.863C63.618,63.119,70.687,60.1,66.042,59.087Z" transform="translate(-36.234 -33.599)" fill="#feffff"></path><path id="Path_280" data-name="Path 280" d="M196.442,112.991c-2.156.634.392,3.765,1.837,3.847C200.953,116.618,198.107,112.8,196.442,112.991Z" transform="translate(-111.25 -64.257)" fill="#94b7c7"></path><path id="Path_281" data-name="Path 281" d="M97.76,72.19c-1.988.047-2.156,2.734,0,2.588C99.5,74.73,99.683,72.017,97.76,72.19Z" transform="translate(-54.716 -41.052)" fill="#bcd1dd"></path><path id="Path_282" data-name="Path 282" d="M32.273,44.743c-1.147-.367-3.92.556-2.363,1.928C31.841,48.319,36.37,45.757,32.273,44.743Z" transform="translate(-16.748 -25.401)" fill="#fff"></path><path id="Path_283" data-name="Path 283" d="M148.555,93.7c-2.346.229.267,4.11,1.842,3.2C151.466,95.787,149.746,93.9,148.555,93.7Z" transform="translate(-83.956 -53.29)" fill="#9abbca"></path><path id="Path_284" data-name="Path 284" d="M106.687,76.468a1.39,1.39,0,1,0,.38,2.752A1.39,1.39,0,0,0,106.687,76.468Z" transform="translate(-59.96 -43.48)" fill="#b1c9d5"></path><path id="Path_285" data-name="Path 285" d="M48.974,53.782a2.67,2.67,0,0,0-2.51.768C45.9,57.957,54.291,55.184,48.974,53.782Z" transform="translate(-26.411 -30.571)" fill="#fff"></path><path id="Path_286" data-name="Path 286" d="M179.942,109c-3.247.72,2.842,6.2,2.769,2.493A3.45,3.45,0,0,0,179.942,109Z" transform="translate(-101.797 -61.992)" fill="#95b7c7"></path><path id="Path_287" data-name="Path 287" d="M163.532,102.26c-2.4.375.375,4.067,1.992,3.523C167.194,104.809,164.869,102.346,163.532,102.26Z" transform="translate(-92.473 -58.158)" fill="#96b8c8"></path><path id="Path_288" data-name="Path 288" d="M72.857,65.9c-1.38-.272-3.355,1.406-1.5,2.316C73.47,69.377,76.234,66.264,72.857,65.9Z" transform="translate(-40.155 -37.463)" fill="#e0eaf0"></path><path id="Path_289" data-name="Path 289" d="M170.511,112.8c-2.691.392.039,4.352,1.867,4.037C174.824,116.142,172.2,112.77,170.511,112.8Z" transform="translate(-96.334 -64.152)" fill="#95b7c7"></path><path id="Path_290" data-name="Path 290" d="M138.636,93.43c-2.264.026-.72,3.394.863,3.4C141.8,96.8,140.137,93.525,138.636,93.43Z" transform="translate(-78.199 -53.136)" fill="#9ebbca"></path><path id="Path_291" data-name="Path 291" d="M206.642,122.694c-2.368.837.479,4.606,2.273,4.386C211.209,126.166,208.44,122.543,206.642,122.694Z" transform="translate(-117.012 -69.777)" fill="#95b8c6"></path><path id="Path_292" data-name="Path 292" d="M113.769,88.375c-2.243.513-.91,3.834,1.078,3.325S115.6,87.979,113.769,88.375Z" transform="translate(-64.04 -50.242)" fill="#a6c2cf"></path><path id="Path_293" data-name="Path 293" d="M81.462,72.576c-2.432-.112-2.808,2.872-.177,2.8C83.481,75.405,83.907,72.529,81.462,72.576Z" transform="translate(-45.198 -41.274)" fill="#c9dae5"></path><path id="Path_294" data-name="Path 294" d="M54.352,61.941c-1.773-.367-3.929,1.617-1.471,2.549C55.288,65.547,58.013,62.428,54.352,61.941Z" transform="translate(-29.447 -35.202)" fill="#fff"></path><path id="Path_295" data-name="Path 295" d="M153.328,103.77c-2.825.242.194,4.774,2.066,3.588C156.636,106.095,154.721,103.943,153.328,103.77Z" transform="translate(-86.547 -59.017)" fill="#98b9c8"></path><path id="Path_296" data-name="Path 296" d="M91.4,78.723c-2.467.086-2.251,3.26.194,3.019A1.519,1.519,0,1,0,91.4,78.723Z" transform="translate(-50.991 -44.765)" fill="#b6cdda"></path><path id="Path_297" data-name="Path 297" d="M188.926,119.4c-2.588.591.2,4.451,2.014,4.248C193.506,122.975,190.712,119.271,188.926,119.4Z" transform="translate(-106.852 -67.902)" fill="#95b8c6"></path><path id="Path_298" data-name="Path 298" d="M35.46,55.381c-1.837-.457-4.373,1.522-1.764,2.644C36.232,59.176,39.506,56.132,35.46,55.381Z" transform="translate(-18.53 -31.459)" fill="#fff"></path><path id="Path_299" data-name="Path 299" d="M102.343,84.068c-2.381.263-1.574,3.631.625,3.213C105.125,86.971,104.392,83.736,102.343,84.068Z" transform="translate(-57.384 -47.799)" fill="#acc6d4"></path><path id="Path_300" data-name="Path 300" d="M217.756,133.172c-2.381,1.009.272,4.882,2.156,5.037C222.884,137.748,219.878,132.87,217.756,133.172Z" transform="translate(-123.309 -75.731)" fill="#95b8c6"></path><path id="Path_301" data-name="Path 301" d="M62.2,70.415c-2.851-.224-3.45,2.933-.354,3.019C64.427,73.606,65.1,70.475,62.2,70.415Z" transform="translate(-33.998 -40.041)" fill="#e0eaf0"></path><path id="Path_302" data-name="Path 302" d="M141.482,103.8c-2.687,0-.992,3.881.923,3.881C145.139,107.716,143.332,103.886,141.482,103.8Z" transform="translate(-79.674 -59.034)" fill="#9abac9"></path><path id="Path_303" data-name="Path 303" d="M125.24,101.734c-2.471.863-.263,4.576,1.842,3.881C129.324,104.684,127.2,101.186,125.24,101.734Z" transform="translate(-70.608 -57.826)" fill="#9dbbcb"></path><path id="Path_304" data-name="Path 304" d="M41.178,65.271c-2.118-.405-4.313,2.053-1.544,3.062C42.55,69.485,45.344,65.836,41.178,65.271Z" transform="translate(-21.803 -37.096)" fill="#fff"></path><path id="Path_305" data-name="Path 305" d="M72.2,78.628c-2.95-.082-2.95,3.485,0,3.334C74.915,81.94,74.98,78.537,72.2,78.628Z" transform="translate(-39.807 -44.717)" fill="#c7d9e4"></path><path id="Path_306" data-name="Path 306" d="M158.685,115.15c-4.166.487,1.971,7.155,2.795,3.019A3.394,3.394,0,0,0,158.685,115.15Z" transform="translate(-89.433 -65.489)" fill="#96b8c7"></path><path id="Path_307" data-name="Path 307" d="M20.419,57.286c-1.225-.142-3.153.276-3.239,1.76C18.293,63.078,26.37,58.7,20.419,57.286Z" transform="translate(-9.772 -32.565)" fill="#fff"></path><path id="Path_308" data-name="Path 308" d="M178.459,124.6c-3.053.483-.147,5.059,2.036,4.623C183.151,128.364,180.434,124.525,178.459,124.6Z" transform="translate(-100.745 -70.862)" fill="#95b8c6"></path><path id="Path_309" data-name="Path 309" d="M84.04,86.235c-3.019.155-2.35,3.916.431,3.592C87.176,89.66,86.6,85.92,84.04,86.235Z" transform="translate(-46.672 -49.034)" fill="#b1c9d5"></path><path id="Path_310" data-name="Path 310" d="M111.244,98.09c-2.734.63-.936,4.511,1.393,3.881C115.125,101.277,113.409,97.594,111.244,98.09Z" transform="translate(-62.485 -55.76)" fill="#a2bfcd"></path><path id="Path_311" data-name="Path 311" d="M97.3,92.847c-2.9.345-1.643,4.313.914,3.774C100.849,96.2,99.671,92.424,97.3,92.847Z" transform="translate(-54.389 -52.786)" fill="#a6c2d1"></path><path id="Path_312" data-name="Path 312" d="M49.9,75.524c-2.812-.306-3.955,3.088-.785,3.588C52.375,79.725,53.707,75.744,49.9,75.524Z" transform="translate(-26.849 -42.942)" fill="#e0ecf2"></path><path id="Path_313" data-name="Path 313" d="M144.784,115.69c-3.226,0-1.225,4.671,1.143,4.511C148.985,120.007,146.94,115.725,144.784,115.69Z" transform="translate(-81.388 -65.796)" fill="#96b8c8"></path><path id="Path_314" data-name="Path 314" d="M26.211,69.046c-3.536-.384-4.576,3.649-.621,3.881C28.928,73.165,30,69.357,26.211,69.046Z" transform="translate(-13.115 -39.254)" fill="#fff"></path><path id="Path_315" data-name="Path 315" d="M164.968,128.119c-3.381.276-.863,5.175,1.548,4.994C169.863,132.763,167.335,128.037,164.968,128.119Z" transform="translate(-92.891 -72.864)" fill="#94b7c7"></path><path id="Path_316" data-name="Path 316" d="M61.452,85.624c-3.523-.035-3.166,4.231.216,3.989C64.915,89.514,64.635,85.469,61.452,85.624Z" transform="translate(-33.537 -48.695)" fill="#c4d6e1"></path><path id="Path_317" data-name="Path 317" d="M125.279,113.636c-2.976,1.052-.272,5.4,2.225,4.5C130.182,117.012,127.6,112.941,125.279,113.636Z" transform="translate(-70.508 -64.583)" fill="#99bac9"></path><path id="Path_318" data-name="Path 318" d="M75.449,94.977c-3.6.246-2.51,4.744.725,4.283C79.468,98.9,78.472,94.658,75.449,94.977Z" transform="translate(-41.634 -54.007)" fill="#aec8d4"></path><path id="Path_319" data-name="Path 319" d="M108.274,109.422c-3.295.781-.979,5.374,1.773,4.55C113.048,113.084,110.845,108.771,108.274,109.422Z" transform="translate(-60.659 -62.194)" fill="#9dbbcb"></path><path id="Path_320" data-name="Path 320" d="M91.37,103.1c-3.493.461-1.725,5.175,1.259,4.472C95.82,106.993,94.164,102.551,91.37,103.1Z" transform="translate(-50.87 -58.609)" fill="#a2c0ce"></path><path id="Path_321" data-name="Path 321" d="M35.631,81.454c-3.933-.164-4.145,4.39-.138,4.373C39.133,85.914,39.4,81.454,35.631,81.454Z" transform="translate(-18.532 -46.323)" fill="#e0ecf2"></path><path id="Path_322" data-name="Path 322" d="M148.558,129.44c-3.709.047-1.643,5.382,1.156,5.283C153.41,134.632,151.275,129.423,148.558,129.44Z" transform="translate(-83.351 -73.616)" fill="#95b7c7"></path><path id="Path_323" data-name="Path 323" d="M48.817,93.79c-4.162.039-3.515,5.175.431,4.809C53.091,98.4,52.522,93.57,48.817,93.79Z" transform="translate(-26.151 -53.337)" fill="#c1d4df"></path><path id="Path_324" data-name="Path 324" d="M65.241,105.314c-4.313.375-2.764,5.757,1.035,5.149C70.227,109.938,68.8,104.874,65.241,105.314Z" transform="translate(-35.627 -59.88)" fill="#aac4d1"></path><path id="Path_325" data-name="Path 325" d="M104.743,122.818c-3.946.992-1.061,6.469,2.225,5.4C110.56,127.088,107.83,121.982,104.743,122.818Z" transform="translate(-58.486 -69.798)" fill="#99b9c9"></path><path id="Path_326" data-name="Path 326" d="M84.311,115.226c-4.188.634-1.889,6.275,1.66,5.356C89.8,119.793,87.641,114.527,84.311,115.226Z" transform="translate(-46.671 -65.496)" fill="#9ebccb"></path><path id="Path_327" data-name="Path 327" d="M52.99,117.649c-5.111.561-3.178,7.1,1.367,6.271C59.067,123.173,57.251,117.066,52.99,117.649Z" transform="translate(-28.409 -66.888)" fill="#a6c1ce"></path><path id="Path_328" data-name="Path 328" d="M75.727,129.811c-5.063.983-2.2,7.608,2.126,6.495C82.451,135.224,79.751,128.9,75.727,129.811Z" transform="translate(-41.537 -73.776)" fill="#9bbaca"></path><path id="Path_329" data-name="Path 329" d="M37.926,132.693c-6.085.794-3.881,8.889,1.725,7.763C45.258,139.4,43.153,131.9,37.926,132.693Z" transform="translate(-19.499 -75.434)" fill="#a1becd"></path></g></g></svg> 