<svg width="167" height="30" viewBox="0 0 167 30" fill="none" xmlns="http://www.w3.org/2000/svg">
<path fill-rule="evenodd" clip-rule="evenodd" d="M160.67 13.5578H155.357L160.234 6.56167C160.411 6.31831 160.557 6.0801 160.67 5.87899V13.5578ZM164.741 22.2852V17.2462H166.875C166.956 16.6458 166.997 16.0533 167 15.4668V15.3485C166.997 14.7668 166.954 14.1689 166.87 13.5578H164.741V0.34786H160.5L150.687 14.3078C150.647 14.7086 150.625 15.1061 150.621 15.501V15.8091C150.626 16.2782 150.658 16.7576 150.716 17.2462H160.67V22.2852H164.741ZM149.449 18.5571H139.438C139.984 16.7824 141.332 15.7141 143.598 14.3431C146.068 12.8495 149.431 10.8843 149.431 7.02008C149.431 2.7575 146.284 0 142.031 0C138.126 0 135.765 2.55406 134.923 4.1671C135.464 4.55635 136.018 4.89869 136.587 5.19644L136.763 5.2866C137.348 5.58153 137.975 5.8392 138.64 6.05844C138.933 5.57587 140.022 4.06181 142.102 4.06181C143.866 4.06181 145.187 5.1151 145.187 7.02008C145.187 8.31507 143.935 9.44173 141.5 10.9147C139.103 12.3641 133.876 15.391 134.818 22.3047H149.448C149.537 21.6666 149.581 21.0375 149.581 20.4148C149.581 19.8122 149.537 19.1917 149.449 18.5571Z" fill="#F04432"/>
<path fill-rule="evenodd" clip-rule="evenodd" d="M94.4126 22.2852V15.1732C94.4126 14.0943 94.5272 13.1987 94.7726 12.4403C95.6179 9.76613 97.7325 8.81663 99.292 8.81663C99.7168 8.81663 100.072 8.85689 100.204 8.87369L100.255 8.88068C100.361 8.20432 100.417 7.53844 100.425 6.87988V6.96422C100.417 6.31315 100.36 5.64228 100.25 4.95511C100.132 4.93648 99.8369 4.89556 99.527 4.89556C97.2647 4.89556 95.2115 6.24378 94.2301 8.54815C94.2381 8.39062 94.2444 8.22145 94.2444 8.04862V4.95095L89.9061 4.94912V22.2852H94.4126ZM23.9762 22.2852V15.1732C23.9762 14.0943 24.091 13.1987 24.3362 12.4403C25.1816 9.76613 27.2961 8.81663 28.8558 8.81663C29.2805 8.81663 29.6361 8.85689 29.7675 8.87369L29.8188 8.88068C29.9252 8.20432 29.9811 7.53844 29.9884 6.87988V6.96422C29.9809 6.31315 29.9234 5.64228 29.8136 4.95511C29.6955 4.93648 29.4006 4.89556 29.0908 4.89556C26.8284 4.89556 24.7752 6.24378 23.7939 8.54815C23.8019 8.39062 23.8081 8.22145 23.8081 8.04862V4.95095L19.47 4.94912V22.2852H23.9762ZM60.2793 18.841C57.4549 18.841 56.1689 16.1893 56.1689 13.7269C56.1689 9.8576 58.3091 8.4791 60.3144 8.4791C62.7701 8.4791 64.4246 10.5762 64.4246 13.6945C64.4246 17.25 62.3409 18.841 60.2793 18.841ZM56.3021 28.0324V21.6784C56.3021 21.2008 56.2825 20.8077 56.2642 20.5457C56.7905 21.1685 58.3347 22.6793 61.0489 22.6793C65.7089 22.6793 68.962 18.9552 68.962 13.6265C68.962 8.21012 65.8763 4.57716 61.2822 4.57716C58.088 4.57716 56.4568 6.35355 55.9052 7.11474C55.9214 6.90598 55.9345 6.6385 55.9345 6.34241V4.9491L51.7958 4.95093V28.0324H56.3021ZM8.48358 18.841C5.65921 18.841 4.37304 16.1893 4.37304 13.7269C4.37304 9.8576 6.51323 8.4791 8.51868 8.4791C10.9743 8.4791 12.6289 10.5762 12.6289 13.6945C12.6289 17.25 10.5453 18.841 8.48358 18.841ZM4.50645 28.0324V21.6784C4.50645 21.2008 4.48682 20.8077 4.46835 20.5457C4.99467 21.1685 6.53884 22.6793 9.25326 22.6793C13.9132 22.6793 17.1663 18.9552 17.1663 13.6265C17.1663 8.21012 14.0804 4.57716 9.48647 4.57716C6.29216 4.57716 4.66115 6.35355 4.10955 7.11474C4.12568 6.90598 4.13882 6.6385 4.13882 6.34241V4.9501H0V28.0324H4.50645ZM40.2908 8.49948C37.5874 8.49948 35.5449 10.7037 35.5449 13.6286C35.5449 16.5529 37.5874 18.7565 40.2908 18.7565C42.9815 18.7565 45.0095 16.5529 45.0095 13.6286C45.0095 10.7037 42.9815 8.49948 40.2908 8.49948ZM40.2917 22.6794C34.9728 22.6794 30.9591 18.7874 30.9591 13.6266C30.9591 8.46505 34.9567 4.57724 40.2612 4.57724C45.5808 4.57724 49.5957 8.46505 49.5957 13.6266C49.5957 18.7874 45.5972 22.6794 40.2917 22.6794ZM105.137 0.334717V4.95012H102.953C102.856 5.61816 102.808 6.27622 102.808 6.92729C102.808 7.56007 102.856 8.2118 102.953 8.87968H105.038V15.8994C105.038 21.8048 110.085 22.4426 112.254 22.4426C112.92 22.4426 113.377 22.3759 113.527 22.3491C113.632 21.6541 113.684 20.9701 113.684 20.2936C113.684 19.6703 113.637 19.0282 113.543 18.371L113.525 18.3748C113.525 18.3748 113.232 18.4377 112.785 18.4377C111.575 18.4377 109.546 18.0401 109.546 15.3633V8.87968H112.772C112.869 8.21014 112.917 7.55058 112.917 6.89835C112.917 6.2669 112.87 5.61633 112.773 4.95012H109.546V0.334717H105.137ZM128.203 4.94874L124.832 14.9407C124.651 15.4845 124.484 16.1768 124.383 16.6175C124.283 16.2053 124.088 15.4506 123.879 14.8735L120.259 4.94874H115.114L122.319 21.9974L121.774 23.2751C121.213 24.6113 120.197 25.3774 118.989 25.3774C118.089 25.3774 117.196 24.7161 117.186 24.7078L117.017 24.5836L117.001 24.62C116.641 25.2037 116.331 25.7977 116.069 26.4047C115.846 26.9234 115.653 27.4721 115.489 28.0474L115.471 28.0881L115.46 28.1144L115.569 28.1928C115.584 28.2039 117.089 29.3282 119.208 29.3282C122.137 29.3282 124.376 27.7123 125.512 24.7774L133.21 4.94874H128.203ZM75.7021 11.3887C76.1353 9.33382 77.5898 8.11368 79.6185 8.11368C81.4881 8.11368 82.7475 9.3942 82.8553 11.3887H75.7021ZM79.7187 4.57719C74.5472 4.57719 70.9355 8.29633 70.9355 13.6265C70.9355 18.8719 74.84 22.6793 80.2196 22.6793C82.8265 22.6793 84.8406 21.7446 85.9498 21.0698C86.0466 20.3992 86.0942 19.7385 86.0942 19.0853C86.0942 18.4512 86.0466 17.7981 85.9498 17.1292C84.8907 17.8631 83.192 18.8065 80.5203 18.8065C78.2718 18.8065 75.8896 17.4932 75.5549 14.5577H87.2894L87.3065 14.3779C87.3346 14.0417 87.4005 13.2077 87.4005 12.7906C87.4005 7.80045 84.386 4.57719 79.7187 4.57719Z" fill="#0D63C9"/>
</svg>
