<svg width="981" height="301" viewBox="0 0 981 301" fill="none" xmlns="http://www.w3.org/2000/svg">
<g clip-path="url(#clip0_7368_985)">
<path d="M502.353 231.097C497.872 231.368 493.839 231.548 490.165 231.548C483.982 231.548 478.784 231.097 474.662 230.103C470.54 229.109 467.224 227.483 464.805 225.225C462.295 222.967 460.593 220.077 459.517 216.463C458.442 212.85 457.994 208.515 457.994 203.456V170.396H449.481C448.226 170.396 447.151 169.945 446.344 169.041C445.448 168.138 445 167.054 445 165.88C445 164.706 445.358 163.712 446.075 162.899L468.837 135.168C469.823 133.904 471.167 133.271 472.691 133.271C474.124 133.271 475.379 133.813 476.365 134.807C477.35 135.891 477.888 137.065 477.888 138.51V152.06H497.245V170.306H477.888V200.295C477.888 202.914 478.157 205.082 478.784 206.798C479.412 208.515 480.577 209.96 482.369 211.044C484.161 212.128 486.581 212.941 489.807 213.483C493.033 214.025 497.155 214.296 502.353 214.386V231.097Z" fill="#0062E9"/>
<path d="M533.359 162.176C536.495 158.743 540.08 156.124 544.202 154.408C548.324 152.691 552.626 151.698 557.017 151.607V170.215C549.937 170.215 544.291 171.66 540.259 174.641C536.226 177.622 534.255 182.319 534.255 188.732V231.186H514.45V157.75C514.45 156.124 515.077 154.679 516.242 153.504C517.407 152.33 518.841 151.698 520.454 151.698C522.247 151.698 523.68 152.33 524.935 153.595L533.269 162.356L533.359 162.176Z" fill="#0062E9"/>
<path d="M581.572 141.944C580.227 142.486 578.973 142.757 577.718 142.757C575.747 142.757 573.954 142.215 572.252 141.131C570.549 140.047 569.295 138.511 568.488 136.524C567.323 133.905 567.323 131.376 568.488 128.846C569.563 126.317 571.445 124.42 573.954 123.336C575.299 122.794 576.553 122.523 577.808 122.523C579.869 122.523 581.751 123.065 583.364 124.149C584.977 125.233 586.231 126.769 587.038 128.756C588.203 131.376 588.203 133.995 587.038 136.524C585.963 139.144 584.081 140.95 581.572 141.944ZM567.681 221.161V162.177C567.681 156.667 572.073 152.151 577.629 152.151C583.095 152.151 587.576 156.577 587.576 162.177V221.161C587.576 226.671 583.185 231.188 577.629 231.188C572.162 231.188 567.681 226.762 567.681 221.161Z" fill="#0062E9"/>
<path d="M601.821 218.994L625.031 112.226C626.107 107.981 629.96 105 634.262 105C640.534 105 645.105 110.962 643.492 117.104L620.282 223.871C619.206 228.117 615.353 231.098 611.052 231.098C604.779 231.098 600.208 225.136 601.821 218.994Z" fill="#0062E9"/>
<path d="M638.476 218.994L661.686 112.226C662.761 107.981 666.614 105 670.916 105C677.189 105 681.759 110.962 680.146 117.104L656.936 223.871C655.861 228.117 652.007 231.098 647.706 231.098C641.433 231.098 636.863 225.136 638.476 218.994Z" fill="#0062E9"/>
<path d="M694.304 196.05C694.842 198.941 695.738 201.47 696.993 203.638C698.247 205.806 699.86 207.522 701.742 208.967C703.624 210.412 705.685 211.406 707.926 212.129C710.166 212.761 712.496 213.122 714.736 213.122C718.679 213.122 722.353 212.129 725.938 210.141C729.523 208.154 732.032 205.173 733.555 201.289L752.464 203.909C751.209 208.696 749.327 212.851 746.818 216.284C744.309 219.806 741.351 222.697 738.036 225.045C734.72 227.394 731.136 229.11 727.103 230.284C723.16 231.459 719.127 232.001 715.095 232.001C710.076 232.001 705.058 231.097 700.129 229.381C695.201 227.665 690.809 225.045 686.956 221.613C683.103 218.181 679.966 213.935 677.636 208.967C675.306 203.999 674.052 198.218 674.052 191.624C674.052 185.03 675.127 179.34 677.367 174.372C679.608 169.403 682.565 165.248 686.15 161.906C689.824 158.564 693.946 155.945 698.695 154.228C703.355 152.512 708.194 151.699 713.034 151.699C717.873 151.699 722.622 152.512 727.193 154.228C731.763 155.945 735.885 158.564 739.559 161.997C743.233 165.429 746.191 169.765 748.521 175.004C750.85 180.243 752.105 186.475 752.284 193.611V195.96H694.125L694.304 196.05ZM730.956 181.236C729.433 177.352 727.013 174.552 723.877 172.565C720.651 170.668 717.245 169.674 713.661 169.674C710.076 169.674 706.671 170.668 703.445 172.565C700.219 174.462 697.799 177.352 696.007 181.236H730.956Z" fill="#0062E9"/>
<path d="M816.806 231.097C812.325 231.368 808.292 231.548 804.618 231.548C798.435 231.548 793.237 231.097 789.115 230.103C784.993 229.109 781.677 227.483 779.258 225.225C776.749 222.967 775.046 220.077 773.971 216.463C772.895 212.85 772.447 208.515 772.447 203.456V170.396H763.934C762.679 170.396 761.604 169.945 760.797 169.041C759.901 168.138 759.453 167.054 759.453 165.88C759.453 164.706 759.812 163.712 760.529 162.899L783.29 135.168C784.276 133.904 785.62 133.271 787.144 133.271C788.577 133.271 789.832 133.813 790.818 134.807C791.804 135.891 792.341 137.065 792.341 138.51V152.06H811.698V170.306H792.341V200.295C792.341 202.914 792.61 205.082 793.237 206.798C793.865 208.515 795.03 209.96 796.822 211.044C798.614 212.128 801.034 212.941 804.26 213.483C807.486 214.025 811.608 214.296 816.806 214.386V231.097Z" fill="#0062E9"/>
<path d="M842.168 231.729C839.21 231.729 836.612 230.736 834.551 228.568C832.489 226.49 831.414 223.961 831.414 220.89C831.414 217.819 832.489 215.29 834.551 213.212C836.612 211.135 839.121 210.051 842.168 210.051C845.215 210.051 847.724 211.135 849.785 213.212C851.846 215.29 852.921 217.819 852.921 220.89C852.921 223.961 851.936 226.49 849.785 228.568C847.634 230.646 845.215 231.729 842.168 231.729Z" fill="#023A84"/>
<path d="M942.894 191.713V225.857C942.894 227.483 942.357 228.928 941.192 230.102C940.027 231.277 938.683 231.819 936.98 231.819C935.188 231.819 933.754 231.006 932.499 229.47L924.613 219.534C921.387 223.599 917.534 226.67 913.053 228.747C908.572 230.825 903.823 231.909 898.894 231.909C894.593 231.909 890.291 231.096 885.99 229.38C881.688 227.754 877.925 225.225 874.609 221.883C871.293 218.54 868.605 214.385 866.544 209.327C864.483 204.269 863.407 198.397 863.407 191.623C863.407 186.113 864.393 180.874 866.544 175.996C868.605 171.118 871.472 166.873 875.057 163.26C878.642 159.647 882.853 156.846 887.782 154.769C892.621 152.691 897.819 151.607 903.285 151.607C908.752 151.607 913.86 152.691 918.699 154.769C923.538 156.846 927.66 159.737 931.334 163.35C934.919 166.963 937.786 171.209 939.848 176.086C941.909 180.964 942.984 186.113 942.984 191.803L942.894 191.713ZM923.09 191.532C923.09 188.552 922.552 185.661 921.566 183.042C920.491 180.422 919.147 178.073 917.355 176.086C915.562 174.099 913.412 172.563 910.992 171.389C908.572 170.215 905.974 169.673 903.285 169.673C900.597 169.673 897.908 170.215 895.489 171.389C893.069 172.563 890.919 174.099 889.126 176.086C887.334 178.073 885.9 180.332 884.825 183.042C883.749 185.661 883.301 188.552 883.301 191.532C883.301 194.513 883.839 197.404 884.825 200.023C885.9 202.643 887.244 204.991 889.126 206.978C890.919 208.966 893.069 210.501 895.489 211.675C897.908 212.85 900.507 213.392 903.285 213.392C906.063 213.392 908.483 212.85 910.992 211.675C913.412 210.501 915.473 208.966 917.265 207.069C919.057 205.172 920.401 202.823 921.566 200.204C922.642 197.584 923.179 194.694 923.179 191.713V191.532H923.09Z" fill="#023A84"/>
<path d="M971.659 141.944C970.315 142.486 969.061 142.757 967.806 142.757C965.835 142.757 964.042 142.215 962.34 141.131C960.637 140.047 959.382 138.511 958.576 136.524C957.411 133.905 957.411 131.376 958.576 128.846C959.651 126.317 961.533 124.42 964.042 123.336C965.387 122.794 966.641 122.523 967.896 122.523C969.957 122.523 971.839 123.065 973.452 124.149C975.065 125.233 976.319 126.769 977.126 128.756C978.291 131.376 978.291 133.995 977.126 136.524C976.051 139.144 974.169 140.95 971.659 141.944ZM957.769 231.098V152.151H977.574V231.098H957.769Z" fill="#023A84"/>
</g>
<path d="M124.088 268.493C111.851 299.869 71.6589 308.027 47.9008 284.181C3.51069 239.716 -13.1021 171.404 11.1919 109.009C35.4859 46.6141 94.9704 6.8105 158.385 5.01755C191.075 4.12107 213.672 37.739 201.793 68.3986L123.998 268.582L124.088 268.493Z" fill="#83E4FF"/>
<path d="M229.693 268.493C217.397 299.869 177.008 308.027 153.134 284.181C108.528 239.716 91.834 171.404 116.246 109.009C140.659 46.6141 200.434 6.8105 264.157 5.01755C297.007 4.12107 319.714 37.739 307.777 68.3986L229.603 268.582L229.693 268.493Z" fill="#0062E9"/>
<path d="M331.693 268.493C319.397 299.869 279.008 308.027 255.134 284.181C210.528 239.716 193.834 171.404 218.246 109.009C242.659 46.6141 302.434 6.8105 366.157 5.01755C399.007 4.12107 421.714 37.739 409.777 68.3986L331.603 268.582L331.693 268.493Z" fill="#27A3FD"/>
<path d="M124.088 268.493C111.851 299.869 71.6589 308.027 47.9008 284.181C3.51069 239.716 -13.1021 171.404 11.1919 109.009C35.4859 46.6141 94.9704 6.8105 158.385 5.01755C191.075 4.12107 213.672 37.739 201.793 68.3986L123.998 268.582L124.088 268.493Z" fill="#83E4FF"/>
<path d="M229.693 268.493C217.397 299.869 177.008 308.027 153.134 284.181C108.528 239.716 91.834 171.404 116.246 109.009C140.659 46.6141 200.434 6.8105 264.157 5.01755C297.007 4.12107 319.714 37.739 307.777 68.3986L229.603 268.582L229.693 268.493Z" fill="#0062E9"/>
<path d="M331.693 268.493C319.397 299.869 279.008 308.027 255.134 284.181C210.528 239.716 193.834 171.404 218.246 109.009C242.659 46.6141 302.434 6.8105 366.157 5.01755C399.007 4.12107 421.714 37.739 409.777 68.3986L331.603 268.582L331.693 268.493Z" fill="#27A3FD"/>
<defs>
<clipPath id="clip0_7368_985">
<rect width="533" height="127" fill="white" transform="translate(445 105)"/>
</clipPath>
</defs>
</svg>
